<svg xmlns="http://www.w3.org/2000/svg" width="720" height="360" viewBox="0 0 720 360" font-family="'DejaVu Sans Mono', Menlo, Consolas, monospace" font-size="16px">
<rect width="100%" height="100%" fill="#101010"/>
<text x="290" y="35" fill="#d8d8d8" textLength="120" lengthAdjust="spacingAndGlyphs" xml:space="preserve" font-weight="bold">Packing List</text>
<text x="0" y="95" fill="#d8d8d8" textLength="110" lengthAdjust="spacingAndGlyphs" xml:space="preserve">  Pack the </text>
<text x="110" y="95" fill="#d8d8d8" textLength="100" lengthAdjust="spacingAndGlyphs" xml:space="preserve" font-weight="bold">essentials</text>
<text x="210" y="95" fill="#d8d8d8" textLength="120" lengthAdjust="spacingAndGlyphs" xml:space="preserve"> before the </text>
<text x="330" y="95" fill="#d8d8d8" textLength="40" lengthAdjust="spacingAndGlyphs" xml:space="preserve" font-style="italic">long</text>
<text x="370" y="95" fill="#d8d8d8" textLength="350" lengthAdjust="spacingAndGlyphs" xml:space="preserve"> trip.                             </text>
<rect x="60" y="100" width="600" height="20" fill="#000000"/>
<text x="60" y="115" fill="#e5e5e5" textLength="600" lengthAdjust="spacingAndGlyphs" xml:space="preserve">┌Open File─────────────────────────────────────────────────┐</text>
<text x="0" y="135" fill="#d8d8d8" textLength="60" lengthAdjust="spacingAndGlyphs" xml:space="preserve">  • Pa</text>
<rect x="60" y="120" width="10" height="20" fill="#000000"/>
<text x="60" y="135" fill="#e5e5e5" textLength="10" lengthAdjust="spacingAndGlyphs" xml:space="preserve">│</text>
<rect x="70" y="120" width="580" height="20" fill="#000000"/>
<text x="70" y="135" fill="#ffffff" textLength="580" lengthAdjust="spacingAndGlyphs" xml:space="preserve"> tests/fixtures/                                          </text>
<rect x="650" y="120" width="10" height="20" fill="#000000"/>
<text x="650" y="135" fill="#e5e5e5" textLength="10" lengthAdjust="spacingAndGlyphs" xml:space="preserve">│</text>
<rect x="60" y="140" width="10" height="20" fill="#000000"/>
<text x="60" y="155" fill="#e5e5e5" textLength="10" lengthAdjust="spacingAndGlyphs" xml:space="preserve">│</text>
<rect x="70" y="140" width="580" height="20" fill="#000000"/>
<text x="70" y="155" fill="#666666" textLength="580" lengthAdjust="spacingAndGlyphs" xml:space="preserve">──────────────────────────────────────────────────────────</text>
<rect x="650" y="140" width="10" height="20" fill="#000000"/>
<text x="650" y="155" fill="#e5e5e5" textLength="10" lengthAdjust="spacingAndGlyphs" xml:space="preserve">│</text>
<text x="0" y="175" fill="#d8d8d8" textLength="60" lengthAdjust="spacingAndGlyphs" xml:space="preserve">  • Ti</text>
<rect x="60" y="160" width="10" height="20" fill="#000000"/>
<text x="60" y="175" fill="#e5e5e5" textLength="10" lengthAdjust="spacingAndGlyphs" xml:space="preserve">│</text>
<rect x="70" y="160" width="50" height="20" fill="#000000"/>
<text x="70" y="175" fill="#ffffff" textLength="50" lengthAdjust="spacingAndGlyphs" xml:space="preserve" font-weight="bold"> sub/</text>
<rect x="120" y="160" width="530" height="20" fill="#000000"/>
<rect x="650" y="160" width="10" height="20" fill="#000000"/>
<text x="650" y="175" fill="#e5e5e5" textLength="10" lengthAdjust="spacingAndGlyphs" xml:space="preserve">│</text>
<rect x="60" y="180" width="10" height="20" fill="#000000"/>
<text x="60" y="195" fill="#e5e5e5" textLength="10" lengthAdjust="spacingAndGlyphs" xml:space="preserve">│</text>
<rect x="70" y="180" width="580" height="20" fill="#000000"/>
<text x="70" y="195" fill="#ffffff" textLength="580" lengthAdjust="spacingAndGlyphs" xml:space="preserve"> alpha.ftml                                               </text>
<rect x="650" y="180" width="10" height="20" fill="#000000"/>
<text x="650" y="195" fill="#e5e5e5" textLength="10" lengthAdjust="spacingAndGlyphs" xml:space="preserve">│</text>
<rect x="60" y="200" width="10" height="20" fill="#000000"/>
<text x="60" y="215" fill="#e5e5e5" textLength="10" lengthAdjust="spacingAndGlyphs" xml:space="preserve">│</text>
<rect x="70" y="200" width="580" height="20" fill="#000000"/>
<text x="70" y="215" fill="#ffffff" textLength="580" lengthAdjust="spacingAndGlyphs" xml:space="preserve"> beta.md                                                  </text>
<rect x="650" y="200" width="10" height="20" fill="#000000"/>
<text x="650" y="215" fill="#e5e5e5" textLength="10" lengthAdjust="spacingAndGlyphs" xml:space="preserve">│</text>
<text x="20" y="235" fill="#cccccc" textLength="10" lengthAdjust="spacingAndGlyphs" xml:space="preserve">│</text>
<text x="40" y="235" fill="#555555" textLength="20" lengthAdjust="spacingAndGlyphs" xml:space="preserve" font-style="italic">Tr</text>
<rect x="60" y="220" width="10" height="20" fill="#000000"/>
<text x="60" y="235" fill="#e5e5e5" textLength="10" lengthAdjust="spacingAndGlyphs" xml:space="preserve">│</text>
<rect x="70" y="220" width="10" height="20" fill="#000000"/>
<rect x="80" y="220" width="390" height="20" fill="#000000"/>
<text x="80" y="235" fill="#666666" textLength="390" lengthAdjust="spacingAndGlyphs" xml:space="preserve">Tab: complete  Enter: open  Esc: cancel</text>
<rect x="470" y="220" width="180" height="20" fill="#000000"/>
<rect x="650" y="220" width="10" height="20" fill="#000000"/>
<text x="650" y="235" fill="#e5e5e5" textLength="10" lengthAdjust="spacingAndGlyphs" xml:space="preserve">│</text>
<rect x="60" y="240" width="600" height="20" fill="#000000"/>
<text x="60" y="255" fill="#e5e5e5" textLength="600" lengthAdjust="spacingAndGlyphs" xml:space="preserve">└──────────────────────────────────────────────────────────┘</text>
<rect x="0" y="340" width="50" height="20" fill="#2472c8"/>
<text x="0" y="355" fill="#ffffff" textLength="50" lengthAdjust="spacingAndGlyphs" xml:space="preserve"> 2:1 </text>
<rect x="50" y="340" width="90" height="20" fill="#2472c8"/>
<text x="50" y="355" fill="#f5f543" textLength="90" lengthAdjust="spacingAndGlyphs" xml:space="preserve">test.ftml</text>
<rect x="140" y="340" width="580" height="20" fill="#2472c8"/>
<text x="140" y="355" fill="#ffffff" textLength="580" lengthAdjust="spacingAndGlyphs" xml:space="preserve"> · Heading 1 · 13 lines · FTML    F10:Menu ^S:Save ^Q:Quit</text>
<rect x="230" y="120" width="10" height="20" fill="#ffffff" fill-opacity="0.4"/>
</svg>
