<svg xmlns="http://www.w3.org/2000/svg" width="720" height="360" viewBox="0 0 720 360" font-family="'DejaVu Sans Mono', Menlo, Consolas, monospace" font-size="16px">
<rect width="100%" height="100%" fill="#101010"/>
<text x="0" y="15" fill="#d8d8d8" textLength="110" lengthAdjust="spacingAndGlyphs" xml:space="preserve">  Read the </text>
<text x="110" y="15" fill="#2472c8" textLength="60" lengthAdjust="spacingAndGlyphs" xml:space="preserve" text-decoration="underline">manual</text>
<text x="170" y="15" fill="#d8d8d8" textLength="550" lengthAdjust="spacingAndGlyphs" xml:space="preserve"> carefully.                                            </text>
<rect x="60" y="100" width="600" height="20" fill="#000000"/>
<text x="60" y="115" fill="#e5e5e5" textLength="600" lengthAdjust="spacingAndGlyphs" xml:space="preserve">┌Edit Link─────────────────────────────────────────────────┐</text>
<rect x="60" y="120" width="10" height="20" fill="#000000"/>
<text x="60" y="135" fill="#e5e5e5" textLength="10" lengthAdjust="spacingAndGlyphs" xml:space="preserve">│</text>
<rect x="70" y="120" width="50" height="20" fill="#000000"/>
<text x="70" y="135" fill="#666666" textLength="50" lengthAdjust="spacingAndGlyphs" xml:space="preserve">Text:</text>
<rect x="120" y="120" width="530" height="20" fill="#000000"/>
<text x="120" y="135" fill="#ffffff" textLength="530" lengthAdjust="spacingAndGlyphs" xml:space="preserve"> manual                                              </text>
<rect x="650" y="120" width="10" height="20" fill="#000000"/>
<text x="650" y="135" fill="#e5e5e5" textLength="10" lengthAdjust="spacingAndGlyphs" xml:space="preserve">│</text>
<rect x="60" y="140" width="10" height="20" fill="#000000"/>
<text x="60" y="155" fill="#e5e5e5" textLength="10" lengthAdjust="spacingAndGlyphs" xml:space="preserve">│</text>
<rect x="70" y="140" width="40" height="20" fill="#000000"/>
<text x="70" y="155" fill="#666666" textLength="40" lengthAdjust="spacingAndGlyphs" xml:space="preserve">URL:</text>
<rect x="110" y="140" width="540" height="20" fill="#000000"/>
<text x="110" y="155" fill="#ffffff" textLength="540" lengthAdjust="spacingAndGlyphs" xml:space="preserve">  https://example.test                                </text>
<rect x="650" y="140" width="10" height="20" fill="#000000"/>
<text x="650" y="155" fill="#e5e5e5" textLength="10" lengthAdjust="spacingAndGlyphs" xml:space="preserve">│</text>
<rect x="60" y="160" width="10" height="20" fill="#000000"/>
<text x="60" y="175" fill="#e5e5e5" textLength="10" lengthAdjust="spacingAndGlyphs" xml:space="preserve">│</text>
<rect x="70" y="160" width="580" height="20" fill="#000000"/>
<text x="70" y="175" fill="#666666" textLength="580" lengthAdjust="spacingAndGlyphs" xml:space="preserve">──────────────────────────────────────────────────────────</text>
<rect x="650" y="160" width="10" height="20" fill="#000000"/>
<text x="650" y="175" fill="#e5e5e5" textLength="10" lengthAdjust="spacingAndGlyphs" xml:space="preserve">│</text>
<rect x="60" y="180" width="10" height="20" fill="#000000"/>
<text x="60" y="195" fill="#e5e5e5" textLength="10" lengthAdjust="spacingAndGlyphs" xml:space="preserve">│</text>
<rect x="70" y="180" width="500" height="20" fill="#000000"/>
<text x="70" y="195" fill="#ffffff" textLength="500" lengthAdjust="spacingAndGlyphs" xml:space="preserve">[ Open ]                               [ Cancel ] </text>
<rect x="570" y="180" width="80" height="20" fill="#3b8eea"/>
<text x="570" y="195" fill="#ffffff" textLength="80" lengthAdjust="spacingAndGlyphs" xml:space="preserve">[ Save ]</text>
<rect x="650" y="180" width="10" height="20" fill="#000000"/>
<text x="650" y="195" fill="#e5e5e5" textLength="10" lengthAdjust="spacingAndGlyphs" xml:space="preserve">│</text>
<rect x="60" y="200" width="10" height="20" fill="#000000"/>
<text x="60" y="215" fill="#e5e5e5" textLength="10" lengthAdjust="spacingAndGlyphs" xml:space="preserve">│</text>
<rect x="70" y="200" width="430" height="20" fill="#000000"/>
<text x="70" y="215" fill="#666666" textLength="430" lengthAdjust="spacingAndGlyphs" xml:space="preserve">Space: activate   Enter: save   Esc: cancel</text>
<rect x="500" y="200" width="150" height="20" fill="#000000"/>
<rect x="650" y="200" width="10" height="20" fill="#000000"/>
<text x="650" y="215" fill="#e5e5e5" textLength="10" lengthAdjust="spacingAndGlyphs" xml:space="preserve">│</text>
<rect x="60" y="220" width="600" height="20" fill="#000000"/>
<text x="60" y="235" fill="#e5e5e5" textLength="600" lengthAdjust="spacingAndGlyphs" xml:space="preserve">└──────────────────────────────────────────────────────────┘</text>
<rect x="0" y="340" width="50" height="20" fill="#2472c8"/>
<text x="0" y="355" fill="#ffffff" textLength="50" lengthAdjust="spacingAndGlyphs" xml:space="preserve">1:12 </text>
<rect x="50" y="340" width="90" height="20" fill="#2472c8"/>
<text x="50" y="355" fill="#f5f543" textLength="90" lengthAdjust="spacingAndGlyphs" xml:space="preserve">test.ftml</text>
<rect x="140" y="340" width="580" height="20" fill="#2472c8"/>
<text x="140" y="355" fill="#ffffff" textLength="580" lengthAdjust="spacingAndGlyphs" xml:space="preserve"> Text &gt; Link, 1 lines, 4 words    F10:Menu ^S:Save ^Q:Quit</text>
<rect x="570" y="180" width="10" height="20" fill="#ffffff" fill-opacity="0.4"/>
</svg>
