<svg xmlns="http://www.w3.org/2000/svg" width="720" height="360" viewBox="0 0 720 360" font-family="'DejaVu Sans Mono', Menlo, Consolas, monospace" font-size="16px">
<rect width="100%" height="100%" fill="#101010"/>
<rect x="290" y="60" width="70" height="20" fill="#3b8eea"/>
<text x="290" y="75" fill="#ffffff" textLength="70" lengthAdjust="spacingAndGlyphs" xml:space="preserve" font-weight="bold">Packing</text>
<text x="360" y="75" fill="#d8d8d8" textLength="50" lengthAdjust="spacingAndGlyphs" xml:space="preserve" font-weight="bold"> List</text>
<rect x="60" y="100" width="600" height="20" fill="#000000"/>
<text x="60" y="115" fill="#e5e5e5" textLength="600" lengthAdjust="spacingAndGlyphs" xml:space="preserve">┌Insert Link───────────────────────────────────────────────┐</text>
<rect x="60" y="120" width="10" height="20" fill="#000000"/>
<text x="60" y="135" fill="#e5e5e5" textLength="10" lengthAdjust="spacingAndGlyphs" xml:space="preserve">│</text>
<rect x="70" y="120" width="50" height="20" fill="#000000"/>
<text x="70" y="135" fill="#666666" textLength="50" lengthAdjust="spacingAndGlyphs" xml:space="preserve">Text:</text>
<rect x="120" y="120" width="530" height="20" fill="#000000"/>
<text x="120" y="135" fill="#ffffff" textLength="530" lengthAdjust="spacingAndGlyphs" xml:space="preserve"> Packing                                             </text>
<rect x="650" y="120" width="10" height="20" fill="#000000"/>
<text x="650" y="135" fill="#e5e5e5" textLength="10" lengthAdjust="spacingAndGlyphs" xml:space="preserve">│</text>
<text x="0" y="155" fill="#d8d8d8" textLength="60" lengthAdjust="spacingAndGlyphs" xml:space="preserve">  Pack</text>
<rect x="60" y="140" width="10" height="20" fill="#000000"/>
<text x="60" y="155" fill="#e5e5e5" textLength="10" lengthAdjust="spacingAndGlyphs" xml:space="preserve">│</text>
<rect x="70" y="140" width="40" height="20" fill="#000000"/>
<text x="70" y="155" fill="#666666" textLength="40" lengthAdjust="spacingAndGlyphs" xml:space="preserve">URL:</text>
<rect x="110" y="140" width="540" height="20" fill="#000000"/>
<rect x="650" y="140" width="10" height="20" fill="#000000"/>
<text x="650" y="155" fill="#e5e5e5" textLength="10" lengthAdjust="spacingAndGlyphs" xml:space="preserve">│</text>
<rect x="60" y="160" width="10" height="20" fill="#000000"/>
<text x="60" y="175" fill="#e5e5e5" textLength="10" lengthAdjust="spacingAndGlyphs" xml:space="preserve">│</text>
<rect x="70" y="160" width="580" height="20" fill="#000000"/>
<text x="70" y="175" fill="#666666" textLength="580" lengthAdjust="spacingAndGlyphs" xml:space="preserve">──────────────────────────────────────────────────────────</text>
<rect x="650" y="160" width="10" height="20" fill="#000000"/>
<text x="650" y="175" fill="#e5e5e5" textLength="10" lengthAdjust="spacingAndGlyphs" xml:space="preserve">│</text>
<text x="20" y="195" fill="#e5e5e5" textLength="20" lengthAdjust="spacingAndGlyphs" xml:space="preserve" opacity="0.6">• </text>
<text x="40" y="195" fill="#d8d8d8" textLength="20" lengthAdjust="spacingAndGlyphs" xml:space="preserve">Pa</text>
<rect x="60" y="180" width="10" height="20" fill="#000000"/>
<text x="60" y="195" fill="#e5e5e5" textLength="10" lengthAdjust="spacingAndGlyphs" xml:space="preserve">│</text>
<rect x="70" y="180" width="80" height="20" fill="#000000"/>
<text x="70" y="195" fill="#666666" textLength="80" lengthAdjust="spacingAndGlyphs" xml:space="preserve">[ Open ]</text>
<rect x="150" y="180" width="500" height="20" fill="#000000"/>
<text x="150" y="195" fill="#ffffff" textLength="500" lengthAdjust="spacingAndGlyphs" xml:space="preserve">                               [ Cancel ] [ Save ]</text>
<rect x="650" y="180" width="10" height="20" fill="#000000"/>
<text x="650" y="195" fill="#e5e5e5" textLength="10" lengthAdjust="spacingAndGlyphs" xml:space="preserve">│</text>
<rect x="60" y="200" width="10" height="20" fill="#000000"/>
<text x="60" y="215" fill="#e5e5e5" textLength="10" lengthAdjust="spacingAndGlyphs" xml:space="preserve">│</text>
<rect x="70" y="200" width="370" height="20" fill="#000000"/>
<text x="70" y="215" fill="#666666" textLength="370" lengthAdjust="spacingAndGlyphs" xml:space="preserve">Enter: save   Esc: cancel   Tab: next</text>
<rect x="440" y="200" width="210" height="20" fill="#000000"/>
<rect x="650" y="200" width="10" height="20" fill="#000000"/>
<text x="650" y="215" fill="#e5e5e5" textLength="10" lengthAdjust="spacingAndGlyphs" xml:space="preserve">│</text>
<text x="20" y="235" fill="#e5e5e5" textLength="20" lengthAdjust="spacingAndGlyphs" xml:space="preserve" opacity="0.6">• </text>
<text x="40" y="235" fill="#d8d8d8" textLength="20" lengthAdjust="spacingAndGlyphs" xml:space="preserve">Ti</text>
<rect x="60" y="220" width="600" height="20" fill="#000000"/>
<text x="60" y="235" fill="#e5e5e5" textLength="600" lengthAdjust="spacingAndGlyphs" xml:space="preserve">└──────────────────────────────────────────────────────────┘</text>
<text x="20" y="275" fill="#e5e5e5" textLength="20" lengthAdjust="spacingAndGlyphs" xml:space="preserve" opacity="0.6">| </text>
<text x="40" y="275" fill="#d8d8d8" textLength="680" lengthAdjust="spacingAndGlyphs" xml:space="preserve">Travel light.                                                       </text>
<rect x="0" y="340" width="40" height="20" fill="#2472c8"/>
<text x="0" y="355" fill="#ffffff" textLength="40" lengthAdjust="spacingAndGlyphs" xml:space="preserve">4:8 </text>
<rect x="40" y="340" width="90" height="20" fill="#2472c8"/>
<text x="40" y="355" fill="#f5f543" textLength="90" lengthAdjust="spacingAndGlyphs" xml:space="preserve">test.ftml</text>
<rect x="130" y="340" width="590" height="20" fill="#2472c8"/>
<text x="130" y="355" fill="#ffffff" textLength="590" lengthAdjust="spacingAndGlyphs" xml:space="preserve"> Header Lvl 1, 13 lines, 13 words  F10:Menu ^S:Save ^Q:Quit</text>
<rect x="200" y="120" width="10" height="20" fill="#ffffff" fill-opacity="0.4"/>
</svg>
