<svg xmlns="http://www.w3.org/2000/svg" width="720" height="360" viewBox="0 0 720 360" font-family="'DejaVu Sans Mono', Menlo, Consolas, monospace" font-size="16px">
<rect width="100%" height="100%" fill="#101010"/>
<rect x="10" y="0" width="70" height="20" fill="#b4d5fe"/>
<text x="10" y="15" fill="#d8d8d8" textLength="70" lengthAdjust="spacingAndGlyphs" xml:space="preserve" font-weight="bold">Packing</text>
<text x="80" y="15" fill="#d8d8d8" textLength="50" lengthAdjust="spacingAndGlyphs" xml:space="preserve" font-weight="bold"> List</text>
<text x="0" y="55" fill="#d8d8d8" textLength="100" lengthAdjust="spacingAndGlyphs" xml:space="preserve"> Pack the </text>
<text x="100" y="55" fill="#d8d8d8" textLength="100" lengthAdjust="spacingAndGlyphs" xml:space="preserve" font-weight="bold">essentials</text>
<text x="200" y="55" fill="#d8d8d8" textLength="120" lengthAdjust="spacingAndGlyphs" xml:space="preserve"> before the </text>
<text x="320" y="55" fill="#d8d8d8" textLength="40" lengthAdjust="spacingAndGlyphs" xml:space="preserve" font-style="italic">long</text>
<text x="360" y="55" fill="#d8d8d8" textLength="360" lengthAdjust="spacingAndGlyphs" xml:space="preserve"> trip.                              </text>
<text x="0" y="95" fill="#d8d8d8" textLength="80" lengthAdjust="spacingAndGlyphs" xml:space="preserve"> • Passp</text>
<rect x="80" y="80" width="560" height="20" fill="#000000"/>
<text x="80" y="95" fill="#e5e5e5" textLength="560" lengthAdjust="spacingAndGlyphs" xml:space="preserve">┌Insert Link───────────────────────────────────────────┐</text>
<text x="0" y="115" fill="#d8d8d8" textLength="80" lengthAdjust="spacingAndGlyphs" xml:space="preserve"> • Ticke</text>
<rect x="80" y="100" width="10" height="20" fill="#000000"/>
<text x="80" y="115" fill="#e5e5e5" textLength="10" lengthAdjust="spacingAndGlyphs" xml:space="preserve">│</text>
<rect x="90" y="100" width="540" height="20" fill="#000000"/>
<rect x="630" y="100" width="10" height="20" fill="#000000"/>
<text x="630" y="115" fill="#e5e5e5" textLength="10" lengthAdjust="spacingAndGlyphs" xml:space="preserve">│</text>
<text x="10" y="135" fill="#cccccc" textLength="10" lengthAdjust="spacingAndGlyphs" xml:space="preserve">│</text>
<text x="30" y="135" fill="#555555" textLength="50" lengthAdjust="spacingAndGlyphs" xml:space="preserve" font-style="italic">Trave</text>
<rect x="80" y="120" width="10" height="20" fill="#000000"/>
<text x="80" y="135" fill="#e5e5e5" textLength="10" lengthAdjust="spacingAndGlyphs" xml:space="preserve">│</text>
<rect x="90" y="120" width="540" height="20" fill="#000000"/>
<text x="90" y="135" fill="#ffffff" textLength="540" lengthAdjust="spacingAndGlyphs" xml:space="preserve"> Text:   Packing                                      </text>
<rect x="630" y="120" width="10" height="20" fill="#000000"/>
<text x="630" y="135" fill="#e5e5e5" textLength="10" lengthAdjust="spacingAndGlyphs" xml:space="preserve">│</text>
<text x="10" y="155" fill="#cccccc" textLength="10" lengthAdjust="spacingAndGlyphs" xml:space="preserve">│</text>
<rect x="80" y="140" width="10" height="20" fill="#000000"/>
<text x="80" y="155" fill="#e5e5e5" textLength="10" lengthAdjust="spacingAndGlyphs" xml:space="preserve">│</text>
<rect x="90" y="140" width="540" height="20" fill="#000000"/>
<rect x="630" y="140" width="10" height="20" fill="#000000"/>
<text x="630" y="155" fill="#e5e5e5" textLength="10" lengthAdjust="spacingAndGlyphs" xml:space="preserve">│</text>
<rect x="80" y="160" width="10" height="20" fill="#000000"/>
<text x="80" y="175" fill="#e5e5e5" textLength="10" lengthAdjust="spacingAndGlyphs" xml:space="preserve">│</text>
<rect x="90" y="160" width="540" height="20" fill="#000000"/>
<text x="90" y="175" fill="#ffffff" textLength="540" lengthAdjust="spacingAndGlyphs" xml:space="preserve"> Target:                                              </text>
<rect x="630" y="160" width="10" height="20" fill="#000000"/>
<text x="630" y="175" fill="#e5e5e5" textLength="10" lengthAdjust="spacingAndGlyphs" xml:space="preserve">│</text>
<rect x="80" y="180" width="10" height="20" fill="#000000"/>
<text x="80" y="195" fill="#e5e5e5" textLength="10" lengthAdjust="spacingAndGlyphs" xml:space="preserve">│</text>
<rect x="90" y="180" width="540" height="20" fill="#000000"/>
<rect x="630" y="180" width="10" height="20" fill="#000000"/>
<text x="630" y="195" fill="#e5e5e5" textLength="10" lengthAdjust="spacingAndGlyphs" xml:space="preserve">│</text>
<rect x="80" y="200" width="10" height="20" fill="#000000"/>
<text x="80" y="215" fill="#e5e5e5" textLength="10" lengthAdjust="spacingAndGlyphs" xml:space="preserve">│</text>
<rect x="90" y="200" width="540" height="20" fill="#000000"/>
<text x="90" y="215" fill="#ffffff" textLength="540" lengthAdjust="spacingAndGlyphs" xml:space="preserve">   Open    Cancel   Save                              </text>
<rect x="630" y="200" width="10" height="20" fill="#000000"/>
<text x="630" y="215" fill="#e5e5e5" textLength="10" lengthAdjust="spacingAndGlyphs" xml:space="preserve">│</text>
<rect x="80" y="220" width="10" height="20" fill="#000000"/>
<text x="80" y="235" fill="#e5e5e5" textLength="10" lengthAdjust="spacingAndGlyphs" xml:space="preserve">│</text>
<rect x="90" y="220" width="540" height="20" fill="#000000"/>
<rect x="630" y="220" width="10" height="20" fill="#000000"/>
<text x="630" y="235" fill="#e5e5e5" textLength="10" lengthAdjust="spacingAndGlyphs" xml:space="preserve">│</text>
<rect x="80" y="240" width="560" height="20" fill="#000000"/>
<text x="80" y="255" fill="#e5e5e5" textLength="560" lengthAdjust="spacingAndGlyphs" xml:space="preserve">└──────────────────────────────────────────────────────┘</text>
<rect x="0" y="340" width="50" height="20" fill="#2472c8"/>
<text x="0" y="355" fill="#ffffff" textLength="50" lengthAdjust="spacingAndGlyphs" xml:space="preserve"> 1:8 </text>
<rect x="50" y="340" width="90" height="20" fill="#2472c8"/>
<text x="50" y="355" fill="#f5f543" textLength="90" lengthAdjust="spacingAndGlyphs" xml:space="preserve">test.ftml</text>
<rect x="140" y="340" width="580" height="20" fill="#2472c8"/>
<text x="140" y="355" fill="#ffffff" textLength="580" lengthAdjust="spacingAndGlyphs" xml:space="preserve"> · Heading 1 · 7 lines · FTML     F10:Menu ^S:Save ^Q:Quit</text>
<rect x="240" y="120" width="10" height="20" fill="#ffffff" fill-opacity="0.4"/>
</svg>
