<svg xmlns="http://www.w3.org/2000/svg" width="720" height="360" viewBox="0 0 720 360" font-family="'DejaVu Sans Mono', Menlo, Consolas, monospace" font-size="16px">
<rect width="100%" height="100%" fill="#101010"/>
<text x="250" y="75" fill="#d8d8d8" textLength="190" lengthAdjust="spacingAndGlyphs" xml:space="preserve" font-weight="bold">Summer Packing List</text>
<rect x="60" y="100" width="600" height="20" fill="#000000"/>
<text x="60" y="115" fill="#e5e5e5" textLength="600" lengthAdjust="spacingAndGlyphs" xml:space="preserve">┌Unsaved changes───────────────────────────────────────────┐</text>
<rect x="60" y="120" width="10" height="20" fill="#000000"/>
<text x="60" y="135" fill="#e5e5e5" textLength="10" lengthAdjust="spacingAndGlyphs" xml:space="preserve">│</text>
<rect x="70" y="120" width="580" height="20" fill="#000000"/>
<text x="70" y="135" fill="#ffffff" textLength="580" lengthAdjust="spacingAndGlyphs" xml:space="preserve">Save changes to test.ftml before starting a new document? </text>
<rect x="650" y="120" width="10" height="20" fill="#000000"/>
<text x="650" y="135" fill="#e5e5e5" textLength="10" lengthAdjust="spacingAndGlyphs" xml:space="preserve">│</text>
<text x="0" y="155" fill="#d8d8d8" textLength="60" lengthAdjust="spacingAndGlyphs" xml:space="preserve">  Pack</text>
<rect x="60" y="140" width="10" height="20" fill="#000000"/>
<text x="60" y="155" fill="#e5e5e5" textLength="10" lengthAdjust="spacingAndGlyphs" xml:space="preserve">│</text>
<rect x="70" y="140" width="580" height="20" fill="#000000"/>
<rect x="650" y="140" width="10" height="20" fill="#000000"/>
<text x="650" y="155" fill="#e5e5e5" textLength="10" lengthAdjust="spacingAndGlyphs" xml:space="preserve">│</text>
<rect x="60" y="160" width="10" height="20" fill="#000000"/>
<text x="60" y="175" fill="#e5e5e5" textLength="10" lengthAdjust="spacingAndGlyphs" xml:space="preserve">│</text>
<rect x="70" y="160" width="580" height="20" fill="#000000"/>
<text x="70" y="175" fill="#666666" textLength="580" lengthAdjust="spacingAndGlyphs" xml:space="preserve">──────────────────────────────────────────────────────────</text>
<rect x="650" y="160" width="10" height="20" fill="#000000"/>
<text x="650" y="175" fill="#e5e5e5" textLength="10" lengthAdjust="spacingAndGlyphs" xml:space="preserve">│</text>
<text x="20" y="195" fill="#e5e5e5" textLength="20" lengthAdjust="spacingAndGlyphs" xml:space="preserve" opacity="0.6">• </text>
<text x="40" y="195" fill="#d8d8d8" textLength="20" lengthAdjust="spacingAndGlyphs" xml:space="preserve">Pa</text>
<rect x="60" y="180" width="10" height="20" fill="#000000"/>
<text x="60" y="195" fill="#e5e5e5" textLength="10" lengthAdjust="spacingAndGlyphs" xml:space="preserve">│</text>
<rect x="70" y="180" width="130" height="20" fill="#000000"/>
<rect x="200" y="180" width="80" height="20" fill="#3b8eea"/>
<text x="200" y="195" fill="#ffffff" textLength="80" lengthAdjust="spacingAndGlyphs" xml:space="preserve">[ Save ]</text>
<rect x="280" y="180" width="370" height="20" fill="#000000"/>
<text x="280" y="195" fill="#ffffff" textLength="370" lengthAdjust="spacingAndGlyphs" xml:space="preserve"> [ Discard ] [ Cancel ]              </text>
<rect x="650" y="180" width="10" height="20" fill="#000000"/>
<text x="650" y="195" fill="#e5e5e5" textLength="10" lengthAdjust="spacingAndGlyphs" xml:space="preserve">│</text>
<rect x="60" y="200" width="10" height="20" fill="#000000"/>
<text x="60" y="215" fill="#e5e5e5" textLength="10" lengthAdjust="spacingAndGlyphs" xml:space="preserve">│</text>
<rect x="70" y="200" width="430" height="20" fill="#000000"/>
<text x="70" y="215" fill="#666666" textLength="430" lengthAdjust="spacingAndGlyphs" xml:space="preserve">Enter: confirm   Tab/←→: move   Esc: cancel</text>
<rect x="500" y="200" width="150" height="20" fill="#000000"/>
<rect x="650" y="200" width="10" height="20" fill="#000000"/>
<text x="650" y="215" fill="#e5e5e5" textLength="10" lengthAdjust="spacingAndGlyphs" xml:space="preserve">│</text>
<text x="20" y="235" fill="#e5e5e5" textLength="20" lengthAdjust="spacingAndGlyphs" xml:space="preserve" opacity="0.6">• </text>
<text x="40" y="235" fill="#d8d8d8" textLength="20" lengthAdjust="spacingAndGlyphs" xml:space="preserve">Ti</text>
<rect x="60" y="220" width="600" height="20" fill="#000000"/>
<text x="60" y="235" fill="#e5e5e5" textLength="600" lengthAdjust="spacingAndGlyphs" xml:space="preserve">└──────────────────────────────────────────────────────────┘</text>
<text x="20" y="275" fill="#e5e5e5" textLength="20" lengthAdjust="spacingAndGlyphs" xml:space="preserve" opacity="0.6">| </text>
<text x="40" y="275" fill="#d8d8d8" textLength="680" lengthAdjust="spacingAndGlyphs" xml:space="preserve">Travel light.                                                       </text>
<rect x="0" y="340" width="40" height="20" fill="#2472c8"/>
<text x="0" y="355" fill="#ffffff" textLength="40" lengthAdjust="spacingAndGlyphs" xml:space="preserve">4:8 </text>
<rect x="40" y="340" width="100" height="20" fill="#2472c8"/>
<text x="40" y="355" fill="#f5f543" textLength="100" lengthAdjust="spacingAndGlyphs" xml:space="preserve">test.ftml*</text>
<rect x="140" y="340" width="580" height="20" fill="#2472c8"/>
<text x="140" y="355" fill="#ffffff" textLength="580" lengthAdjust="spacingAndGlyphs" xml:space="preserve"> Header Lvl 1, 13 lines, 14 words F10:Menu ^S:Save ^Q:Quit</text>
<rect x="200" y="180" width="10" height="20" fill="#ffffff" fill-opacity="0.4"/>
</svg>
