<svg xmlns="http://www.w3.org/2000/svg" width="720" height="360" viewBox="0 0 720 360" font-family="'DejaVu Sans Mono', Menlo, Consolas, monospace" font-size="16px">
<rect width="100%" height="100%" fill="#101010"/>
<text x="20" y="15" fill="#e5e5e5" textLength="10" lengthAdjust="spacingAndGlyphs" xml:space="preserve" opacity="0.6">|</text>
<text x="30" y="15" fill="#d8d8d8" textLength="690" lengthAdjust="spacingAndGlyphs" xml:space="preserve"> first                                                               </text>
<text x="20" y="55" fill="#e5e5e5" textLength="10" lengthAdjust="spacingAndGlyphs" xml:space="preserve" opacity="0.6">|</text>
<text x="30" y="55" fill="#d8d8d8" textLength="690" lengthAdjust="spacingAndGlyphs" xml:space="preserve"> second                                                              </text>
<rect x="250" y="80" width="210" height="20" fill="#000000"/>
<text x="250" y="95" fill="#e5e5e5" textLength="210" lengthAdjust="spacingAndGlyphs" xml:space="preserve">┌Context Menu───────┐</text>
<rect x="250" y="100" width="10" height="20" fill="#000000"/>
<text x="250" y="115" fill="#e5e5e5" textLength="10" lengthAdjust="spacingAndGlyphs" xml:space="preserve">│</text>
<rect x="260" y="100" width="170" height="20" fill="#000000"/>
<text x="260" y="115" fill="#ffffff" textLength="170" lengthAdjust="spacingAndGlyphs" xml:space="preserve" font-weight="bold">Convert container</text>
<rect x="430" y="100" width="20" height="20" fill="#000000"/>
<rect x="450" y="100" width="10" height="20" fill="#000000"/>
<text x="450" y="115" fill="#e5e5e5" textLength="10" lengthAdjust="spacingAndGlyphs" xml:space="preserve">│</text>
<rect x="250" y="120" width="10" height="20" fill="#000000"/>
<text x="250" y="135" fill="#e5e5e5" textLength="10" lengthAdjust="spacingAndGlyphs" xml:space="preserve">│</text>
<rect x="260" y="120" width="160" height="20" fill="#000000"/>
<text x="260" y="135" fill="#666666" textLength="160" lengthAdjust="spacingAndGlyphs" xml:space="preserve">Quote          5</text>
<rect x="420" y="120" width="30" height="20" fill="#000000"/>
<rect x="450" y="120" width="10" height="20" fill="#000000"/>
<text x="450" y="135" fill="#e5e5e5" textLength="10" lengthAdjust="spacingAndGlyphs" xml:space="preserve">│</text>
<rect x="250" y="140" width="10" height="20" fill="#000000"/>
<text x="250" y="155" fill="#e5e5e5" textLength="10" lengthAdjust="spacingAndGlyphs" xml:space="preserve">│</text>
<rect x="260" y="140" width="190" height="20" fill="#3b8eea"/>
<text x="260" y="155" fill="#ffffff" textLength="190" lengthAdjust="spacingAndGlyphs" xml:space="preserve">Numbered List  7   </text>
<rect x="450" y="140" width="10" height="20" fill="#000000"/>
<text x="450" y="155" fill="#e5e5e5" textLength="10" lengthAdjust="spacingAndGlyphs" xml:space="preserve">│</text>
<rect x="250" y="160" width="10" height="20" fill="#000000"/>
<text x="250" y="175" fill="#e5e5e5" textLength="10" lengthAdjust="spacingAndGlyphs" xml:space="preserve">│</text>
<rect x="260" y="160" width="190" height="20" fill="#000000"/>
<text x="260" y="175" fill="#ffffff" textLength="190" lengthAdjust="spacingAndGlyphs" xml:space="preserve">Bullet List    8   </text>
<rect x="450" y="160" width="10" height="20" fill="#000000"/>
<text x="450" y="175" fill="#e5e5e5" textLength="10" lengthAdjust="spacingAndGlyphs" xml:space="preserve">│</text>
<rect x="250" y="180" width="10" height="20" fill="#000000"/>
<text x="250" y="195" fill="#e5e5e5" textLength="10" lengthAdjust="spacingAndGlyphs" xml:space="preserve">│</text>
<rect x="260" y="180" width="190" height="20" fill="#000000"/>
<text x="260" y="195" fill="#ffffff" textLength="190" lengthAdjust="spacingAndGlyphs" xml:space="preserve">Checklist      9   </text>
<rect x="450" y="180" width="10" height="20" fill="#000000"/>
<text x="450" y="195" fill="#e5e5e5" textLength="10" lengthAdjust="spacingAndGlyphs" xml:space="preserve">│</text>
<rect x="250" y="200" width="10" height="20" fill="#000000"/>
<text x="250" y="215" fill="#e5e5e5" textLength="10" lengthAdjust="spacingAndGlyphs" xml:space="preserve">│</text>
<rect x="260" y="200" width="170" height="20" fill="#000000"/>
<text x="260" y="215" fill="#666666" textLength="170" lengthAdjust="spacingAndGlyphs" xml:space="preserve">─────────────────</text>
<rect x="430" y="200" width="20" height="20" fill="#000000"/>
<rect x="450" y="200" width="10" height="20" fill="#000000"/>
<text x="450" y="215" fill="#e5e5e5" textLength="10" lengthAdjust="spacingAndGlyphs" xml:space="preserve">│</text>
<rect x="250" y="220" width="10" height="20" fill="#000000"/>
<text x="250" y="235" fill="#e5e5e5" textLength="10" lengthAdjust="spacingAndGlyphs" xml:space="preserve">│</text>
<rect x="260" y="220" width="190" height="20" fill="#000000"/>
<text x="260" y="235" fill="#ffffff" textLength="190" lengthAdjust="spacingAndGlyphs" xml:space="preserve">Unwrap         [   </text>
<rect x="450" y="220" width="10" height="20" fill="#000000"/>
<text x="450" y="235" fill="#e5e5e5" textLength="10" lengthAdjust="spacingAndGlyphs" xml:space="preserve">│</text>
<rect x="250" y="240" width="210" height="20" fill="#000000"/>
<text x="250" y="255" fill="#e5e5e5" textLength="210" lengthAdjust="spacingAndGlyphs" xml:space="preserve">└───────────────────┘</text>
<rect x="0" y="340" width="40" height="20" fill="#2472c8"/>
<text x="0" y="355" fill="#ffffff" textLength="40" lengthAdjust="spacingAndGlyphs" xml:space="preserve">1:1 </text>
<rect x="40" y="340" width="90" height="20" fill="#2472c8"/>
<text x="40" y="355" fill="#f5f543" textLength="90" lengthAdjust="spacingAndGlyphs" xml:space="preserve">test.ftml</text>
<rect x="130" y="340" width="590" height="20" fill="#2472c8"/>
<text x="130" y="355" fill="#ffffff" textLength="590" lengthAdjust="spacingAndGlyphs" xml:space="preserve"> Quote &gt; Text, 2 lines, 2 words    F10:Menu ^S:Save ^Q:Quit</text>
<rect x="40" y="0" width="10" height="20" fill="#ffffff" fill-opacity="0.4"/>
</svg>
